<?xml version="1.0" encoding="UTF-8"?>
<svg id="Layer_1" xmlns="http://www.w3.org/2000/svg" version="1.1" viewBox="0 0 1080 1080">
  <!-- Generator: Adobe Illustrator 29.0.1, SVG Export Plug-In . SVG Version: 2.1.0 Build 192)  -->
  <defs>
    <style>
      .st0 {
        stroke-width: 6px;
      }

      .st0, .st1, .st2, .st3 {
        fill: none;
      }

      .st0, .st1, .st2, .st3, .st4, .st5 {
        stroke-miterlimit: 10;
      }

      .st0, .st2, .st3, .st4, .st5 {
        stroke: #4e5a8c;
      }

      .st1 {
        stroke: #fff;
      }

      .st6, .st7 {
        isolation: isolate;
      }

      .st7 {
        font-family: Bomboniere-Medium, Bomboniere;
        font-size: 34px;
        font-weight: 500;
      }

      .st7, .st8, .st5 {
        fill: #4e5a8c;
      }

      .st2 {
        stroke-width: .5px;
      }

      .st3 {
        stroke-width: .8px;
      }

      .st4 {
        fill: #fff;
        stroke-width: 3px;
      }

      .st5 {
        stroke-width: 4px;
      }
    </style>
  </defs>
  <g id="Layer_11" data-name="Layer_1">
    <g>
      <path class="st5" d="M210.1,135.8h.8c-1.4,12.5,5.9,17.8,15.3,17.8s15.7-4.3,16.3-10.3c1.7-15.7-32.7-8.5-29.1-26.4,2.1-10.5,14.1-15.4,24.1-15.4s8.7,1.6,11.7,1.6,4.6-1.9,5.2-5.2h1.2c-1.3,7.3-2.6,14.6-3.9,21.9h-.8c0-11.9-5.4-17-14.3-16.9-8.1,0-13.8,4.1-14.5,9.6-2.1,16,32,9.4,28.9,26.6-2,10.9-15.1,16-25.4,15.9-6.7,0-8.5-1.7-12.3-1.7s-5.8,1.7-6.4,4.7h-1.2c1.5-7.3,2.9-14.7,4.4-22v-.2Z"/>
      <path class="st5" d="M287.4,154.7c-4.1,0-6.3-2.3-5.8-6.3-2.6,2.4-7.8,6.3-14.7,6.3s-10.5-4.6-9.3-8.4c3.4-10.3,24.1-6.6,27-17,1.2-4.2.5-10-5.3-9.9-7.6,0-7.9,10.6-7.9,10.6-1.6.3-3.2.5-4.8.8,0,0-2.2-1.9-1.8-4.7.7-4.3,6.7-7.7,15.6-7.8,10.1,0,12.7,4.1,11.4,12.9-.9,6-1.8,11.9-2.7,17.9-.3,2,.4,2.9,2.2,2.9,2.6,0,4.6-2.2,4.6-2.2.2.1.4.2.6.4,0,0-3.4,4.4-9,4.4h-.1ZM265.4,145.7c-.8,4.5,1.5,7,5.5,7s9.2-3.9,10.9-5.7c.7-4.7,1.5-9.5,2.2-14.2-4.3,6.4-17,2.9-18.6,12.9h0Z"/>
      <path class="st5" d="M297.4,153h0c6.7,0,9.2-1.7,9.8-6.4,1.2-8.7,2.5-17.5,3.7-26.2-2.5,0-4.9-.2-7.4-.3,0-.3,0-.7.1-1,5,0,10-.3,15-.4-.3,1.9-.5,3.9-.8,5.8,2.3-2.4,7.3-6.4,15.2-6.4s9.5,2.1,10.2,7c1.9-2.3,7-7.1,15.7-7.2,7.6,0,11.2,3.5,10.4,11.7-.6,5.6-1.2,11.2-1.8,16.8-.5,4.7,1.5,6.4,8.1,6.4h0v.7h-25.1v-.7h0c6.4,0,8.6-1.7,9.1-6.2.6-5.5,1.2-11,1.8-16.6.7-6.8-.9-10.5-6.3-10.5s-10.9,5.3-12.1,6.8c0,1,0,2.2-.1,3.4-.7,5.6-1.4,11.3-2,16.9-.5,4.5,1.3,6.2,7.7,6.2h0v.7h-24.8v-.7h0c6.4,0,8.7-1.7,9.3-6.2.7-5.5,1.4-11,2.1-16.5.8-6.8-.7-10.5-6.1-10.5s-10.3,4.5-11.9,6.4c-.9,6.9-1.9,13.8-2.8,20.7-.6,4.5,1.2,6.2,7.6,6.2h0v.7h-25.2c0-.2,0-.5.1-.7h.5Z"/>
      <path class="st5" d="M375.4,168.5h0c6.7,0,9.1-1.7,9.5-6.4,1.3-14,2.6-28.1,3.9-42.1-2.4,0-4.9-.2-7.3-.3,0-.3,0-.7.1-1,4.9,0,9.9-.3,14.8-.4-.1,1.3-.2,2.5-.3,3.8,2.1-1.6,6.5-4.4,12.7-4.4,10.2,0,16.7,7.6,15.9,17.5-.8,11.3-10.8,19.2-21.9,19.2s-7.8-1.3-9.4-2.5c-.3,2.9-.5,5.7-.8,8.6-.6,6.4,3,8.1,12.5,8.1h0v.7h-30v-.7h.3ZM393.8,149.6c1,1.2,3.7,3.7,9.2,3.7,8.2,0,12.5-5.4,13.5-17.6.9-11.5-2.3-16.8-9.1-16.8s-10.1,3.8-11.2,4.9c-.8,8.6-1.5,17.2-2.3,25.8h-.1Z"/>
      <path class="st5" d="M427.5,152.7h0c6.6,0,8.9-1.7,9.2-6.4,1-15.6,2-31.2,2.9-46.8h-8.1v-1.1c5.7-.3,11.4-.5,17.1-.8v.8c-.5.2-1,.5-1.6.7-.9,15.7-1.8,31.4-2.8,47.2-.3,4.7,1.8,6.4,8.4,6.4h0v.7h-25.4v-.7h.3Z"/>
      <path class="st5" d="M475.3,154.3c-10,0-18.3-7.9-17.7-17.9.6-10.3,9.4-18.7,19.8-18.8,8.4,0,14.6,5.4,14.3,14.5,0,1.9-.3,2.9-.3,2.9h-25.3c-.5,11.5,3.6,17.8,11.2,17.8s13.1-9.7,13.1-9.7c.3,0,.6.2.9.3,0,0-3.3,10.9-15.9,10.9h-.1ZM484,133.8c0-.5.2-1.5.2-2.9.3-7.6-1.9-12.3-7.5-12.3s-9.8,5.4-10.6,15.2c6,0,11.9,0,17.9,0Z"/>
      <path class="st5" d="M528.8,134.7h.8c.4,10.2,8,18.2,18.3,18.2s14.3-4.2,14-10.5c-.9-16.7-33.1-8.5-33.4-27.1,0-10.5,11.2-15.7,20.6-15.5,6.3,0,8.8,1.7,11.7,1.7s4.2-1.9,4.1-5.3h1.2c0,7.4.2,14.8.3,22.2h-.8c-2.3-12.1-8.5-17.3-17.1-17.3s-12.5,4-12.3,9.7c.7,16.9,32.7,9.5,33.2,27.3.3,10.8-12.2,16.2-21.8,16.1-6.4,0-8.6-1.8-12.3-1.8s-5.4,1.8-5.4,4.8h-1.2c0-7.5,0-15,.2-22.5h0Z"/>
      <path class="st5" d="M596.3,154.3c-10.1,0-18.7-7.9-18.9-18-.2-10.3,8.3-18.8,18.6-18.8s7.1,2.4,9.7,2.4,3.4-1.8,3.2-4.9h.8c.3,6.6.6,13.3.8,19.9h-.6c-2.5-11.9-7.8-16.2-14-16.3-7.2,0-10.6,5.8-10.3,16.3.3,11.5,4.9,17.9,12.4,17.9s12.5-9.7,12.5-9.7c.3.1.6.2.9.3,0,0-2.8,10.8-15.1,10.8h0Z"/>
      <path class="st5" d="M614,152.6h0c6.6,0,8.7-1.7,8.5-6.4-.8-15.6-1.5-31.2-2.3-46.8h-8.1v-1.1c5.7-.2,11.3-.4,17-.7v.8c-.5.2-1,.5-1.5.7.4,8.3.9,16.6,1.3,24.9,1.9-2.4,6.2-6.4,14.4-6.4s12.1,3.6,12.7,11.9c.4,5.8.8,11.5,1.2,17.3.3,4.2,2.2,5.9,8,5.9h0v.7h-23.8v-.7h0c6.4,0,8.3-1.7,8-6.3-.4-5.5-.7-11.1-1.1-16.6-.5-6.9-2.8-10.6-8.3-10.6s-9.9,4.5-11.2,6.4c.4,7,.7,14,1.1,20.9.2,4.5,2.3,6.2,8.5,6.2h0v.7h-24.8v-.7h.4Z"/>
      <path class="st5" d="M687.4,154.4c-10.3,0-19.2-7.7-20.1-18-.8-10.1,7.2-18.7,17.5-18.6,8.5,0,15.3,5.5,16.2,14.5.2,1.9,0,2.9,0,2.9h-25.4c.9,11.5,5.9,17.8,13.5,17.8s11.9-9.6,11.9-9.6c.3,0,.6.2.9.3,0,0-2,10.8-14.6,10.8h0ZM693.5,134c0-.5,0-1.5,0-2.9-.7-7.6-3.5-12.3-9.1-12.3s-9.2,5.3-8.7,15.1h17.9,0Z"/>
      <path class="st5" d="M740.3,150.2c-1.8,1.6-5.8,4.3-12.2,4.3-10.1,0-18.3-7.6-19.4-17.6-1.2-10.9,7.6-19.2,18.3-19,4.8,0,8,1.4,9.8,2.6-.8-6.9-1.6-13.7-2.5-20.6-2.7,0-5.5,0-8.2,0,0-.4,0-.7,0-1.1,5.7-.2,11.4-.4,17.1-.6,0,.3,0,.5,0,.8-.5.2-1,.5-1.5.7,2.2,17.5,4.4,35.1,6.5,52.6,2.3,0,4.5-.1,6.8-.2,0,.3,0,.7.2,1-4.5.3-9,.6-13.5.9,0-.1-.2-.2-.4-.3h0c-.2,0-.5,0-.7.1,0-1.2-.3-2.4-.4-3.6h.1ZM717.1,136.4c1.2,11.5,5.4,16.8,12.5,16.8s9.6-3.7,10.5-4.8c-1-8.6-2-17.1-3.1-25.7-1.2-1.2-4.4-3.8-9.9-3.8-8.1,0-11.4,5.3-10.1,17.4q.9,8.1,0,0h0Z"/>
      <path class="st5" d="M778.3,154.6c-8.1,0-12.8-3.6-13.9-11.8l-3-22.5c-2.5,0-5-.2-7.4-.4,0-.3,0-.7,0-1,4.9,0,9.9-.2,14.8-.2,1.1,7.9,2.2,15.9,3.3,23.8.9,6.8,3.7,10.5,9.3,10.5s9.7-4.3,10.9-6.2c-1.3-8.8-2.7-17.6-4-26.3-2.5,0-5-.2-7.5-.4,0-.3,0-.7-.2-1,5.5,0,11-.2,16.5-.3,0,.3,0,.5,0,.8-.5.2-1,.5-1.5.7,1.7,10.7,3.3,21.4,5,32.1,2.3,0,4.6-.1,6.8-.2,0,.3.2.7.2,1-4.5.3-9,.6-13.5.9,0-.1-.3-.2-.4-.3h-.6c-.3-1.9-.6-3.7-.8-5.6-1.8,2.4-5.9,6.3-14.2,6.2h0l.2.2Z"/>
      <path class="st5" d="M811.4,153.1h0c6.7,0,8.7-1.7,7.9-6.3-2.6-15.4-5.2-30.8-7.7-46.2-2.8,0-5.5,0-8.3,0,0-.4,0-.7-.2-1.1,5.7-.2,11.5-.4,17.2-.6,0,.3,0,.5,0,.8-.5.2-1,.5-1.4.7,2.7,15.5,5.3,31,8,46.5.8,4.7,3.3,6.3,10.1,6.4h0c0,.2,0,.5,0,.7h-25.9c0-.2,0-.5,0-.7h.2Z"/>
      <path class="st5" d="M860.5,154.8c-10.5-.1-20.2-7.3-22.2-17.7-1.9-10,5.9-18.5,16-18.3,8.6,0,16.2,5.4,18,14.3.4,1.8.3,2.9.3,2.9-8.7,0-17.3,0-26-.1,2.1,11.3,7.8,17.6,15.5,17.6s11.3-9.5,11.2-9.5c.3,0,.7.2,1,.3,0,0-.9,10.7-13.8,10.6h0ZM864.7,134.7c0-.5-.2-1.5-.4-2.8-1.5-7.5-4.8-12.1-10.5-12.1s-8.9,5.2-7.4,14.9h18.3Z"/>
    </g>
    <g>
      <path class="st8" d="M239.3,263.8c0-8,2.7-12.4,7.4-12.4s7.4,4.4,7.4,12.4-2.7,12.6-7.4,12.6-7.4-4.6-7.4-12.6ZM252.3,263.8c0-7.3-2.2-11-5.6-11s-5.6,3.6-5.6,11,2.2,11.1,5.6,11.1,5.6-3.8,5.6-11.1Z"/>
      <path class="st8" d="M257.5,269.8c0-3.3,2.6-5.6,4.9-6.8v-.2c-1.8-1.2-3.5-3-3.5-5.5s2.8-5.9,6.4-5.9,6.7,2.7,6.7,6.3-2.1,5-3.5,6.1v.2c2.1,1.3,4.3,2.9,4.3,6.1s-3,6.3-7.5,6.3-7.8-2.8-7.8-6.6ZM271.1,270.1c0-3.7-3.7-5-7.6-6.5-2.5,1.4-4.4,3.5-4.4,6.1s2.6,5.3,6.2,5.3,5.8-2.2,5.8-4.9ZM270.4,257.8c0-2.7-1.8-4.9-5-4.9s-4.7,1.9-4.7,4.5,3.3,4.8,6.5,6c2.1-1.7,3.2-3.5,3.2-5.6Z"/>
      <path class="st8" d="M277,260.3c0-1.1.8-1.7,1.6-1.7s1.6.6,1.6,1.7-.8,1.7-1.6,1.7-1.6-.6-1.6-1.7ZM277,274.7c0-1.1.8-1.7,1.6-1.7s1.6.6,1.6,1.7-.8,1.7-1.6,1.7-1.6-.6-1.6-1.7Z"/>
      <path class="st8" d="M284,273l1-1.2c1.5,1.6,3.5,3.1,6.8,3.1s5.8-2.1,5.8-5.3-2.5-5.6-8.6-5.6v-1.5c5.7,0,7.7-2.3,7.7-5.2s-2-4.5-5-4.5-4.2,1.2-5.6,2.6l-1-1.1c1.7-1.6,3.8-3,6.7-3s6.7,2.1,6.7,5.8-2,5.1-4.7,5.9v.2c3.1.6,5.6,2.8,5.6,6.3s-3.3,6.8-7.6,6.8-6.2-1.8-7.8-3.4h0Z"/>
      <path class="st8" d="M303.3,263.8c0-8,2.7-12.4,7.4-12.4s7.4,4.4,7.4,12.4-2.7,12.6-7.4,12.6-7.4-4.6-7.4-12.6ZM316.3,263.8c0-7.3-2.2-11-5.6-11s-5.6,3.6-5.6,11,2.2,11.1,5.6,11.1,5.6-3.8,5.6-11.1Z"/>
      <path class="st8" d="M762,263.8c0-8,2.7-12.4,7.4-12.4s7.4,4.4,7.4,12.4-2.7,12.6-7.4,12.6-7.4-4.6-7.4-12.6ZM775,263.8c0-7.3-2.2-11-5.6-11s-5.6,3.6-5.6,11,2.2,11.1,5.6,11.1,5.6-3.8,5.6-11.1Z"/>
      <path class="st8" d="M780.8,274.1l1-1.1c1.1,1.3,2.6,2,4.2,2,3.9,0,7.3-3.1,7.3-12.2s-2-9.9-6.4-9.9-5,2.7-5,6.1,1.6,6.1,5.3,6.1,4.1-1.1,6.2-3.9v1.8c-1.7,2.1-4,3.5-6.4,3.5-4.3,0-6.9-2.6-6.9-7.5s3.1-7.5,6.8-7.5,8,4.1,8,11.4-4.3,13.6-9.1,13.6-4-1-5.2-2.3h.2Z"/>
      <path class="st8" d="M799.7,260.3c0-1.1.8-1.7,1.6-1.7s1.6.6,1.6,1.7-.8,1.7-1.6,1.7-1.6-.6-1.6-1.7ZM799.7,274.7c0-1.1.8-1.7,1.6-1.7s1.6.6,1.6,1.7-.8,1.7-1.6,1.7-1.6-.6-1.6-1.7Z"/>
      <path class="st8" d="M807.4,263.8c0-8,2.7-12.4,7.4-12.4s7.4,4.4,7.4,12.4-2.7,12.6-7.4,12.6-7.4-4.6-7.4-12.6ZM820.5,263.8c0-7.3-2.2-11-5.6-11s-5.6,3.6-5.6,11,2.2,11.1,5.6,11.1,5.6-3.8,5.6-11.1Z"/>
      <path class="st8" d="M825.9,263.8c0-8,2.7-12.4,7.4-12.4s7.4,4.4,7.4,12.4-2.7,12.6-7.4,12.6-7.4-4.6-7.4-12.6ZM839,263.8c0-7.3-2.2-11-5.6-11s-5.6,3.6-5.6,11,2.2,11.1,5.6,11.1,5.6-3.8,5.6-11.1Z"/>
    </g>
    <line class="st2" x1="843.7" y1="297.1" x2="236.3" y2="297.1"/>
    <g>
      <path class="st8" d="M239.3,330.7c0-8,2.7-12.4,7.4-12.4s7.4,4.4,7.4,12.4-2.7,12.6-7.4,12.6-7.4-4.6-7.4-12.6ZM252.3,330.7c0-7.3-2.2-11-5.6-11s-5.6,3.6-5.6,11,2.2,11.1,5.6,11.1,5.6-3.8,5.6-11.1Z"/>
      <path class="st8" d="M258.1,340.9l1-1.1c1.1,1.3,2.6,2,4.2,2,3.9,0,7.3-3.1,7.3-12.2s-2-9.9-6.4-9.9-5,2.7-5,6.1,1.6,6.1,5.3,6.1,4.1-1.1,6.2-3.9v1.8c-1.7,2.1-4,3.5-6.4,3.5-4.3,0-6.9-2.6-6.9-7.5s3.1-7.5,6.8-7.5,8,4.1,8,11.4-4.3,13.6-9.1,13.6-4-1-5.2-2.3h.2Z"/>
      <path class="st8" d="M277,327.2c0-1.1.8-1.7,1.6-1.7s1.6.6,1.6,1.7-.8,1.7-1.6,1.7-1.6-.6-1.6-1.7ZM277,341.6c0-1.1.8-1.7,1.6-1.7s1.6.6,1.6,1.7-.8,1.7-1.6,1.7-1.6-.6-1.6-1.7Z"/>
      <path class="st8" d="M284.5,341.8c8.1-8.1,12.1-12.5,12.1-16.7s-1.7-5.3-5.4-5.3-4.2,1.3-5.8,3.1l-1.1-1c1.9-2,4-3.6,7-3.6,4.4,0,7,2.7,7,6.8s-4.5,9.4-11.3,16.5c1.4,0,2.8-.2,4.2-.2h8.4v1.5h-15.1v-1h0Z"/>
      <path class="st8" d="M302.4,340l1-1.2c1.5,1.5,3.4,2.9,6.8,2.9s6.1-2.6,6.1-6.5-2.4-6.2-6-6.2-3.1.6-4.6,1.6l-1.2-.7.9-11.3h11.4v1.5h-9.8l-.8,8.7c1.3-.7,2.6-1.3,4.4-1.3,4.2,0,7.5,2.3,7.5,7.6s-3.9,8-7.9,8-6.2-1.7-7.8-3.3v.2Z"/>
      <path class="st8" d="M763.4,341.3h5.8v-20h-4.4v-1.1c2-.3,3.6-.9,4.7-1.5h1.4v22.6h5.4v1.5h-12.9v-1.5Z"/>
      <path class="st8" d="M780.5,330.7c0-8,2.7-12.4,7.4-12.4s7.4,4.4,7.4,12.4-2.7,12.6-7.4,12.6-7.4-4.6-7.4-12.6ZM793.5,330.7c0-7.3-2.2-11-5.6-11s-5.6,3.6-5.6,11,2.2,11.1,5.6,11.1,5.6-3.8,5.6-11.1Z"/>
      <path class="st8" d="M799.7,327.2c0-1.1.8-1.7,1.6-1.7s1.6.6,1.6,1.7-.8,1.7-1.6,1.7-1.6-.6-1.6-1.7ZM799.7,341.6c0-1.1.8-1.7,1.6-1.7s1.6.6,1.6,1.7-.8,1.7-1.6,1.7-1.6-.6-1.6-1.7Z"/>
      <path class="st8" d="M807.2,341.8c8.1-8.1,12.2-12.5,12.2-16.7s-1.7-5.3-5.4-5.3-4.2,1.3-5.8,3.1l-1.1-1c1.9-2,4-3.6,7-3.6,4.4,0,7,2.7,7,6.8s-4.5,9.4-11.3,16.5c1.4,0,2.8-.2,4.2-.2h8.4v1.5h-15.1v-1h-.1Z"/>
      <path class="st8" d="M825.1,340l1-1.2c1.5,1.5,3.4,2.9,6.8,2.9s6.1-2.6,6.1-6.5-2.4-6.2-6-6.2-3.1.6-4.6,1.6l-1.2-.7.9-11.3h11.4v1.5h-9.8l-.8,8.7c1.3-.7,2.6-1.3,4.4-1.3,4.2,0,7.5,2.3,7.5,7.6s-3.9,8-7.9,8-6.2-1.7-7.8-3.3v.2Z"/>
    </g>
    <line class="st2" x1="843.7" y1="363.9" x2="236.3" y2="363.9"/>
    <g>
      <path class="st8" d="M240.7,408.2h5.8v-20h-4.4v-1.1c2-.3,3.6-.9,4.7-1.5h1.4v22.6h5.4v1.5h-12.9v-1.5Z"/>
      <path class="st8" d="M257.8,397.5c0-8,2.7-12.4,7.4-12.4s7.4,4.4,7.4,12.4-2.7,12.6-7.4,12.6-7.4-4.6-7.4-12.6ZM270.8,397.5c0-7.3-2.2-11-5.6-11s-5.6,3.6-5.6,11,2.2,11.1,5.6,11.1,5.6-3.8,5.6-11.1Z"/>
      <path class="st8" d="M277,394c0-1.1.8-1.7,1.6-1.7s1.6.6,1.6,1.7-.8,1.7-1.6,1.7-1.6-.6-1.6-1.7ZM277,408.4c0-1.1.8-1.7,1.6-1.7s1.6.6,1.6,1.7-.8,1.7-1.6,1.7-1.6-.6-1.6-1.7Z"/>
      <path class="st8" d="M294.9,392.2c0-1.1,0-3,.2-4.2h-.2c-.6,1-1.3,1.9-2,3l-7.2,10h14.6v1.4h-16.7v-1l11.5-15.9h1.5v24.1h-1.7v-17.4h0Z"/>
      <path class="st8" d="M302.4,406.9l1-1.2c1.5,1.5,3.4,2.9,6.8,2.9s6.1-2.6,6.1-6.5-2.4-6.2-6-6.2-3.1.6-4.6,1.6l-1.2-.7.9-11.3h11.4v1.5h-9.8l-.8,8.7c1.3-.7,2.6-1.3,4.4-1.3,4.2,0,7.5,2.3,7.5,7.6s-3.9,8-7.9,8-6.2-1.7-7.8-3.3v.2Z"/>
      <path class="st8" d="M763.4,408.2h5.8v-20h-4.4v-1.1c2-.3,3.6-.9,4.7-1.5h1.4v22.6h5.4v1.5h-12.9v-1.5Z"/>
      <path class="st8" d="M781.9,408.2h5.8v-20h-4.4v-1.1c2-.3,3.6-.9,4.7-1.5h1.4v22.6h5.4v1.5h-12.9v-1.5Z"/>
      <path class="st8" d="M799.7,394c0-1.1.8-1.7,1.6-1.7s1.6.6,1.6,1.7-.8,1.7-1.6,1.7-1.6-.6-1.6-1.7ZM799.7,408.4c0-1.1.8-1.7,1.6-1.7s1.6.6,1.6,1.7-.8,1.7-1.6,1.7-1.6-.6-1.6-1.7Z"/>
      <path class="st8" d="M817.5,392.2c0-1.1,0-3,.2-4.2h-.2c-.6,1-1.3,1.9-2,3l-7.2,10h14.6v1.4h-16.7v-1l11.5-15.9h1.5v24.1h-1.7v-17.4h0Z"/>
      <path class="st8" d="M825.1,406.9l1-1.2c1.5,1.5,3.4,2.9,6.8,2.9s6.1-2.6,6.1-6.5-2.4-6.2-6-6.2-3.1.6-4.6,1.6l-1.2-.7.9-11.3h11.4v1.5h-9.8l-.8,8.7c1.3-.7,2.6-1.3,4.4-1.3,4.2,0,7.5,2.3,7.5,7.6s-3.9,8-7.9,8-6.2-1.7-7.8-3.3v.2Z"/>
    </g>
    <line class="st2" x1="843.7" y1="430.8" x2="236.3" y2="430.8"/>
    <g>
      <path class="st8" d="M240.7,475h5.8v-20h-4.4v-1.1c2-.3,3.6-.9,4.7-1.5h1.4v22.6h5.4v1.5h-12.9v-1.5Z"/>
      <path class="st8" d="M259.2,475h5.8v-20h-4.4v-1.1c2-.3,3.6-.9,4.7-1.5h1.4v22.6h5.4v1.5h-12.9v-1.5Z"/>
      <path class="st8" d="M277,460.9c0-1.1.8-1.7,1.6-1.7s1.6.6,1.6,1.7-.8,1.7-1.6,1.7-1.6-.6-1.6-1.7ZM277,475.3c0-1.1.8-1.7,1.6-1.7s1.6.6,1.6,1.7-.8,1.7-1.6,1.7-1.6-.6-1.6-1.7Z"/>
      <path class="st8" d="M294.9,459.1c0-1.1,0-3,.2-4.2h-.2c-.6,1-1.3,1.9-2,3l-7.2,10h14.6v1.4h-16.7v-1l11.5-15.9h1.5v24.1h-1.7v-17.4h0Z"/>
      <path class="st8" d="M302.4,473.7l1-1.2c1.5,1.5,3.4,2.9,6.8,2.9s6.1-2.6,6.1-6.5-2.4-6.2-6-6.2-3.1.6-4.6,1.6l-1.2-.7.9-11.3h11.4v1.5h-9.8l-.8,8.7c1.3-.7,2.6-1.3,4.4-1.3,4.2,0,7.5,2.3,7.5,7.6s-3.9,8-7.9,8-6.2-1.7-7.8-3.3v.2Z"/>
      <path class="st8" d="M763.4,475h5.8v-20h-4.4v-1.1c2-.3,3.6-.9,4.7-1.5h1.4v22.6h5.4v1.5h-12.9v-1.5Z"/>
      <path class="st8" d="M779.7,473.6l1-1.2c1.5,1.6,3.5,3.1,6.8,3.1s5.8-2.1,5.8-5.3-2.5-5.6-8.6-5.6v-1.5c5.7,0,7.7-2.3,7.7-5.2s-2-4.5-5-4.5-4.2,1.2-5.6,2.6l-1-1.1c1.7-1.6,3.8-3,6.7-3s6.7,2.1,6.7,5.8-2,5.1-4.7,5.9v.2c3.1.6,5.6,2.8,5.6,6.3s-3.3,6.8-7.6,6.8-6.2-1.8-7.8-3.4h0Z"/>
      <path class="st8" d="M799.7,460.9c0-1.1.8-1.7,1.6-1.7s1.6.6,1.6,1.7-.8,1.7-1.6,1.7-1.6-.6-1.6-1.7ZM799.7,475.3c0-1.1.8-1.7,1.6-1.7s1.6.6,1.6,1.7-.8,1.7-1.6,1.7-1.6-.6-1.6-1.7Z"/>
      <path class="st8" d="M807.4,464.4c0-8,2.7-12.4,7.4-12.4s7.4,4.4,7.4,12.4-2.7,12.6-7.4,12.6-7.4-4.6-7.4-12.6ZM820.5,464.4c0-7.3-2.2-11-5.6-11s-5.6,3.6-5.6,11,2.2,11.1,5.6,11.1,5.6-3.8,5.6-11.1Z"/>
      <path class="st8" d="M825.9,464.4c0-8,2.7-12.4,7.4-12.4s7.4,4.4,7.4,12.4-2.7,12.6-7.4,12.6-7.4-4.6-7.4-12.6ZM839,464.4c0-7.3-2.2-11-5.6-11s-5.6,3.6-5.6,11,2.2,11.1,5.6,11.1,5.6-3.8,5.6-11.1Z"/>
    </g>
    <line class="st2" x1="843.7" y1="497.6" x2="236.3" y2="497.6"/>
    <g>
      <path class="st8" d="M240.7,541.9h5.8v-20h-4.4v-1.1c2-.3,3.6-.9,4.7-1.5h1.4v22.6h5.4v1.5h-12.9v-1.5Z"/>
      <path class="st8" d="M257.1,540.4l1-1.2c1.5,1.6,3.5,3.1,6.8,3.1s5.8-2.1,5.8-5.3-2.5-5.6-8.6-5.6v-1.5c5.7,0,7.7-2.3,7.7-5.2s-2-4.5-5-4.5-4.2,1.2-5.6,2.6l-1-1.1c1.7-1.6,3.8-3,6.7-3s6.7,2.1,6.7,5.8-2,5.1-4.7,5.9v.2c3.1.6,5.6,2.8,5.6,6.3s-3.3,6.8-7.6,6.8-6.2-1.8-7.8-3.4h0Z"/>
      <path class="st8" d="M277,527.7c0-1.1.8-1.7,1.6-1.7s1.6.6,1.6,1.7-.8,1.7-1.6,1.7-1.6-.6-1.6-1.7ZM277,542.1c0-1.1.8-1.7,1.6-1.7s1.6.6,1.6,1.7-.8,1.7-1.6,1.7-1.6-.6-1.6-1.7Z"/>
      <path class="st8" d="M284.8,531.2c0-8,2.7-12.4,7.4-12.4s7.4,4.4,7.4,12.4-2.7,12.6-7.4,12.6-7.4-4.6-7.4-12.6ZM297.8,531.2c0-7.3-2.2-11-5.6-11s-5.6,3.6-5.6,11,2.2,11.1,5.6,11.1,5.6-3.8,5.6-11.1Z"/>
      <path class="st8" d="M303.3,531.2c0-8,2.7-12.4,7.4-12.4s7.4,4.4,7.4,12.4-2.7,12.6-7.4,12.6-7.4-4.6-7.4-12.6ZM316.3,531.2c0-7.3-2.2-11-5.6-11s-5.6,3.6-5.6,11,2.2,11.1,5.6,11.1,5.6-3.8,5.6-11.1Z"/>
      <path class="st8" d="M763.4,541.9h5.8v-20h-4.4v-1.1c2-.3,3.6-.9,4.7-1.5h1.4v22.6h5.4v1.5h-12.9v-1.5Z"/>
      <path class="st8" d="M790.6,525.9c0-1.1,0-3,.2-4.2h-.2c-.6,1-1.3,1.9-2,3l-7.2,10h14.6v1.4h-16.7v-1l11.5-15.9h1.5v24.1h-1.7v-17.4h0Z"/>
      <path class="st8" d="M799.7,527.7c0-1.1.8-1.7,1.6-1.7s1.6.6,1.6,1.7-.8,1.7-1.6,1.7-1.6-.6-1.6-1.7ZM799.7,542.1c0-1.1.8-1.7,1.6-1.7s1.6.6,1.6,1.7-.8,1.7-1.6,1.7-1.6-.6-1.6-1.7Z"/>
      <path class="st8" d="M807.4,531.2c0-8,2.7-12.4,7.4-12.4s7.4,4.4,7.4,12.4-2.7,12.6-7.4,12.6-7.4-4.6-7.4-12.6ZM820.5,531.2c0-7.3-2.2-11-5.6-11s-5.6,3.6-5.6,11,2.2,11.1,5.6,11.1,5.6-3.8,5.6-11.1Z"/>
      <path class="st8" d="M825.9,531.2c0-8,2.7-12.4,7.4-12.4s7.4,4.4,7.4,12.4-2.7,12.6-7.4,12.6-7.4-4.6-7.4-12.6ZM839,531.2c0-7.3-2.2-11-5.6-11s-5.6,3.6-5.6,11,2.2,11.1,5.6,11.1,5.6-3.8,5.6-11.1Z"/>
    </g>
    <line class="st2" x1="843.7" y1="564.5" x2="236.3" y2="564.5"/>
    <g>
      <path class="st8" d="M240.7,608.7h5.8v-20h-4.4v-1.1c2-.3,3.6-.9,4.7-1.5h1.4v22.6h5.4v1.5h-12.9v-1.5Z"/>
      <path class="st8" d="M267.9,592.8c0-1.1,0-3,.2-4.2h-.2c-.6,1-1.3,1.9-2,3l-7.2,10h14.6v1.4h-16.7v-1l11.5-15.9h1.5v24.1h-1.7v-17.4h0Z"/>
      <path class="st8" d="M277,594.6c0-1.1.8-1.7,1.6-1.7s1.6.6,1.6,1.7-.8,1.7-1.6,1.7-1.6-.6-1.6-1.7ZM277,609c0-1.1.8-1.7,1.6-1.7s1.6.6,1.6,1.7-.8,1.7-1.6,1.7-1.6-.6-1.6-1.7Z"/>
      <path class="st8" d="M284.8,598.1c0-8,2.7-12.4,7.4-12.4s7.4,4.4,7.4,12.4-2.7,12.6-7.4,12.6-7.4-4.6-7.4-12.6ZM297.8,598.1c0-7.3-2.2-11-5.6-11s-5.6,3.6-5.6,11,2.2,11.1,5.6,11.1,5.6-3.8,5.6-11.1Z"/>
      <path class="st8" d="M303.3,598.1c0-8,2.7-12.4,7.4-12.4s7.4,4.4,7.4,12.4-2.7,12.6-7.4,12.6-7.4-4.6-7.4-12.6ZM316.3,598.1c0-7.3-2.2-11-5.6-11s-5.6,3.6-5.6,11,2.2,11.1,5.6,11.1,5.6-3.8,5.6-11.1Z"/>
      <path class="st8" d="M763.4,608.7h5.8v-20h-4.4v-1.1c2-.3,3.6-.9,4.7-1.5h1.4v22.6h5.4v1.5h-12.9v-1.5Z"/>
      <path class="st8" d="M790.6,592.8c0-1.1,0-3,.2-4.2h-.2c-.6,1-1.3,1.9-2,3l-7.2,10h14.6v1.4h-16.7v-1l11.5-15.9h1.5v24.1h-1.7v-17.4h0Z"/>
      <path class="st8" d="M799.7,594.6c0-1.1.8-1.7,1.6-1.7s1.6.6,1.6,1.7-.8,1.7-1.6,1.7-1.6-.6-1.6-1.7ZM799.7,609c0-1.1.8-1.7,1.6-1.7s1.6.6,1.6,1.7-.8,1.7-1.6,1.7-1.6-.6-1.6-1.7Z"/>
      <path class="st8" d="M807.2,609.1c8.1-8.1,12.2-12.5,12.2-16.7s-1.7-5.3-5.4-5.3-4.2,1.3-5.8,3.1l-1.1-1c1.9-2,4-3.6,7-3.6,4.4,0,7,2.7,7,6.8s-4.5,9.4-11.3,16.5c1.4,0,2.8-.2,4.2-.2h8.4v1.5h-15.1v-1h-.1Z"/>
      <path class="st8" d="M825.9,598.1c0-8,2.7-12.4,7.4-12.4s7.4,4.4,7.4,12.4-2.7,12.6-7.4,12.6-7.4-4.6-7.4-12.6ZM838.9,598.1c0-7.3-2.2-11-5.6-11s-5.6,3.6-5.6,11,2.2,11.1,5.6,11.1,5.6-3.8,5.6-11.1Z"/>
    </g>
    <line class="st2" x1="843.7" y1="631.3" x2="236.3" y2="631.3"/>
    <g>
      <path class="st8" d="M240.7,675.6h5.8v-20h-4.4v-1.1c2-.3,3.6-.9,4.7-1.5h1.4v22.6h5.4v1.5h-12.9v-1.5Z"/>
      <path class="st8" d="M267.9,659.6c0-1.1,0-3,.2-4.2h-.2c-.6,1-1.3,1.9-2,3l-7.2,10h14.6v1.4h-16.7v-1l11.5-15.9h1.5v24.1h-1.7v-17.4h0Z"/>
      <path class="st8" d="M277,661.4c0-1.1.8-1.7,1.6-1.7s1.6.6,1.6,1.7-.8,1.7-1.6,1.7-1.6-.6-1.6-1.7ZM277,675.8c0-1.1.8-1.7,1.6-1.7s1.6.6,1.6,1.7-.8,1.7-1.6,1.7-1.6-.6-1.6-1.7Z"/>
      <path class="st8" d="M284.5,676c8.1-8.1,12.2-12.5,12.2-16.7s-1.7-5.3-5.4-5.3-4.2,1.3-5.8,3.1l-1.1-1c1.9-2,4-3.6,7-3.6,4.4,0,7,2.7,7,6.8s-4.5,9.4-11.3,16.5c1.4,0,2.8-.2,4.2-.2h8.4v1.5h-15.1v-1h-.1Z"/>
      <path class="st8" d="M303.3,664.9c0-8,2.7-12.4,7.4-12.4s7.4,4.4,7.4,12.4-2.7,12.6-7.4,12.6-7.4-4.6-7.4-12.6ZM316.3,664.9c0-7.3-2.2-11-5.6-11s-5.6,3.6-5.6,11,2.2,11.1,5.6,11.1,5.6-3.8,5.6-11.1Z"/>
      <path class="st8" d="M763.4,675.6h5.8v-20h-4.4v-1.1c2-.3,3.6-.9,4.7-1.5h1.4v22.6h5.4v1.5h-12.9v-1.5Z"/>
      <path class="st8" d="M779.6,674.2l1-1.2c1.5,1.5,3.4,2.9,6.8,2.9s6.1-2.6,6.1-6.5-2.4-6.2-6-6.2-3.1.6-4.6,1.6l-1.2-.7.9-11.3h11.4v1.5h-9.8l-.8,8.7c1.3-.7,2.6-1.3,4.4-1.3,4.2,0,7.5,2.3,7.5,7.6s-3.9,8-7.9,8-6.2-1.7-7.8-3.3v.2Z"/>
      <path class="st8" d="M799.7,661.4c0-1.1.8-1.7,1.6-1.7s1.6.6,1.6,1.7-.8,1.7-1.6,1.7-1.6-.6-1.6-1.7ZM799.7,675.8c0-1.1.8-1.7,1.6-1.7s1.6.6,1.6,1.7-.8,1.7-1.6,1.7-1.6-.6-1.6-1.7Z"/>
      <path class="st8" d="M807.2,676c8.1-8.1,12.2-12.5,12.2-16.7s-1.7-5.3-5.4-5.3-4.2,1.3-5.8,3.1l-1.1-1c1.9-2,4-3.6,7-3.6,4.4,0,7,2.7,7,6.8s-4.5,9.4-11.3,16.5c1.4,0,2.8-.2,4.2-.2h8.4v1.5h-15.1v-1h-.1Z"/>
      <path class="st8" d="M825.9,664.9c0-8,2.7-12.4,7.4-12.4s7.4,4.4,7.4,12.4-2.7,12.6-7.4,12.6-7.4-4.6-7.4-12.6ZM838.9,664.9c0-7.3-2.2-11-5.6-11s-5.6,3.6-5.6,11,2.2,11.1,5.6,11.1,5.6-3.8,5.6-11.1Z"/>
    </g>
    <line class="st2" x1="843.7" y1="698.2" x2="236.3" y2="698.2"/>
    <g>
      <path class="st8" d="M240.7,742.4h5.8v-20h-4.4v-1.1c2-.3,3.6-.9,4.7-1.5h1.4v22.6h5.4v1.5h-12.9v-1.5Z"/>
      <path class="st8" d="M256.9,741.1l1-1.2c1.5,1.5,3.4,2.9,6.8,2.9s6.1-2.6,6.1-6.5-2.4-6.2-6-6.2-3.1.6-4.6,1.6l-1.2-.7.9-11.3h11.4v1.5h-9.8l-.8,8.7c1.3-.7,2.6-1.3,4.4-1.3,4.2,0,7.5,2.3,7.5,7.6s-3.9,8-7.9,8-6.2-1.7-7.8-3.3v.2Z"/>
      <path class="st8" d="M277,728.3c0-1.1.8-1.7,1.6-1.7s1.6.6,1.6,1.7-.8,1.7-1.6,1.7-1.6-.6-1.6-1.7ZM277,742.7c0-1.1.8-1.7,1.6-1.7s1.6.6,1.6,1.7-.8,1.7-1.6,1.7-1.6-.6-1.6-1.7Z"/>
      <path class="st8" d="M284.5,742.8c8.1-8.1,12.1-12.5,12.1-16.7s-1.7-5.3-5.4-5.3-4.2,1.3-5.8,3.1l-1.1-1c1.9-2,4-3.6,7-3.6,4.4,0,7,2.7,7,6.8s-4.5,9.4-11.3,16.5c1.4,0,2.8-.2,4.2-.2h8.4v1.5h-15.1v-1h0Z"/>
      <path class="st8" d="M303.3,731.8c0-8,2.7-12.4,7.4-12.4s7.4,4.4,7.4,12.4-2.7,12.6-7.4,12.6-7.4-4.6-7.4-12.6ZM316.3,731.8c0-7.3-2.2-11-5.6-11s-5.6,3.6-5.6,11,2.2,11.1,5.6,11.1,5.6-3.8,5.6-11.1Z"/>
      <path class="st8" d="M763.4,742.4h5.8v-20h-4.4v-1.1c2-.3,3.6-.9,4.7-1.5h1.4v22.6h5.4v1.5h-12.9v-1.5Z"/>
      <path class="st8" d="M779.6,741.1l1-1.2c1.5,1.5,3.4,2.9,6.8,2.9s6.1-2.6,6.1-6.5-2.4-6.2-6-6.2-3.1.6-4.6,1.6l-1.2-.7.9-11.3h11.4v1.5h-9.8l-.8,8.7c1.3-.7,2.6-1.3,4.4-1.3,4.2,0,7.5,2.3,7.5,7.6s-3.9,8-7.9,8-6.2-1.7-7.8-3.3v.2Z"/>
      <path class="st8" d="M799.7,728.3c0-1.1.8-1.7,1.6-1.7s1.6.6,1.6,1.7-.8,1.7-1.6,1.7-1.6-.6-1.6-1.7ZM799.7,742.7c0-1.1.8-1.7,1.6-1.7s1.6.6,1.6,1.7-.8,1.7-1.6,1.7-1.6-.6-1.6-1.7Z"/>
      <path class="st8" d="M817.5,726.4c0-1.1,0-3,.2-4.2h-.2c-.6,1-1.3,1.9-2,3l-7.2,10h14.6v1.4h-16.7v-1l11.5-15.9h1.5v24.1h-1.7v-17.4h0Z"/>
      <path class="st8" d="M825.1,741.1l1-1.2c1.5,1.5,3.4,2.9,6.8,2.9s6.1-2.6,6.1-6.5-2.4-6.2-6-6.2-3.1.6-4.6,1.6l-1.2-.7.9-11.3h11.4v1.5h-9.8l-.8,8.7c1.3-.7,2.6-1.3,4.4-1.3,4.2,0,7.5,2.3,7.5,7.6s-3.9,8-7.9,8-6.2-1.7-7.8-3.3v.2Z"/>
    </g>
    <line class="st2" x1="843.7" y1="765" x2="236.3" y2="765"/>
    <g>
      <path class="st8" d="M240.7,809.3h5.8v-20h-4.4v-1.1c2-.3,3.6-.9,4.7-1.5h1.4v22.6h5.4v1.5h-12.9v-1.5Z"/>
      <path class="st8" d="M256.9,807.9l1-1.2c1.5,1.5,3.4,2.9,6.8,2.9s6.1-2.6,6.1-6.5-2.4-6.2-6-6.2-3.1.6-4.6,1.6l-1.2-.7.9-11.3h11.4v1.5h-9.8l-.8,8.7c1.3-.7,2.6-1.3,4.4-1.3,4.2,0,7.5,2.3,7.5,7.6s-3.9,8-7.9,8-6.2-1.7-7.8-3.3v.2Z"/>
      <path class="st8" d="M277,795.1c0-1.1.8-1.7,1.6-1.7s1.6.6,1.6,1.7-.8,1.7-1.6,1.7-1.6-.6-1.6-1.7ZM277,809.5c0-1.1.8-1.7,1.6-1.7s1.6.6,1.6,1.7-.8,1.7-1.6,1.7-1.6-.6-1.6-1.7Z"/>
      <path class="st8" d="M294.9,793.3c0-1.1,0-3,.2-4.2h-.2c-.6,1-1.3,1.9-2,3l-7.2,10h14.6v1.4h-16.7v-1l11.5-15.9h1.5v24.1h-1.7v-17.4h0Z"/>
      <path class="st8" d="M302.4,807.9l1-1.2c1.5,1.5,3.4,2.9,6.8,2.9s6.1-2.6,6.1-6.5-2.4-6.2-6-6.2-3.1.6-4.6,1.6l-1.2-.7.9-11.3h11.4v1.5h-9.8l-.8,8.7c1.3-.7,2.6-1.3,4.4-1.3,4.2,0,7.5,2.3,7.5,7.6s-3.9,8-7.9,8-6.2-1.7-7.8-3.3v.2Z"/>
      <path class="st8" d="M763.4,809.3h5.8v-20h-4.4v-1.1c2-.3,3.6-.9,4.7-1.5h1.4v22.6h5.4v1.5h-12.9v-1.5Z"/>
      <path class="st8" d="M780.6,799.8c0-10.1,4.3-13.6,9.1-13.6s3.9,1,5.2,2.3l-1,1.1c-1.1-1.3-2.6-2-4.2-2-3.9,0-7.3,3.1-7.3,12.2s2,9.9,6.4,9.9,5-2.7,5-6.1-1.6-6.1-5.3-6.1-4.1,1.1-6.2,3.9v-1.8c1.7-2.1,4-3.5,6.4-3.5,4.3,0,6.9,2.6,6.9,7.5s-3.1,7.5-6.8,7.5-8-4.1-8-11.4h-.2Z"/>
      <path class="st8" d="M799.7,795.1c0-1.1.8-1.7,1.6-1.7s1.6.6,1.6,1.7-.8,1.7-1.6,1.7-1.6-.6-1.6-1.7ZM799.7,809.5c0-1.1.8-1.7,1.6-1.7s1.6.6,1.6,1.7-.8,1.7-1.6,1.7-1.6-.6-1.6-1.7Z"/>
      <path class="st8" d="M817.5,793.3c0-1.1,0-3,.2-4.2h-.2c-.6,1-1.3,1.9-2,3l-7.2,10h14.6v1.4h-16.7v-1l11.5-15.9h1.5v24.1h-1.7v-17.4h0Z"/>
      <path class="st8" d="M825.1,807.9l1-1.2c1.5,1.5,3.4,2.9,6.8,2.9s6.1-2.6,6.1-6.5-2.4-6.2-6-6.2-3.1.6-4.6,1.6l-1.2-.7.9-11.3h11.4v1.5h-9.8l-.8,8.7c1.3-.7,2.6-1.3,4.4-1.3,4.2,0,7.5,2.3,7.5,7.6s-3.9,8-7.9,8-6.2-1.7-7.8-3.3v.2Z"/>
    </g>
    <line class="st2" x1="843.7" y1="831.9" x2="236.3" y2="831.9"/>
    <g>
      <path class="st8" d="M240.7,876.1h5.8v-20h-4.4v-1.1c2-.3,3.6-.9,4.7-1.5h1.4v22.6h5.4v1.5h-12.9v-1.5Z"/>
      <path class="st8" d="M270.6,855h-13v-1.5h15.2v1c-5.9,7.6-7.4,13.7-7.8,23.1h-1.8c.4-9.7,2.5-15.8,7.4-22.6h0Z"/>
      <path class="st8" d="M277,862c0-1.1.8-1.7,1.6-1.7s1.6.6,1.6,1.7-.8,1.7-1.6,1.7-1.6-.6-1.6-1.7ZM277,876.4c0-1.1.8-1.7,1.6-1.7s1.6.6,1.6,1.7-.8,1.7-1.6,1.7-1.6-.6-1.6-1.7Z"/>
      <path class="st8" d="M284.8,865.5c0-8,2.7-12.4,7.4-12.4s7.4,4.4,7.4,12.4-2.7,12.6-7.4,12.6-7.4-4.6-7.4-12.6ZM297.8,865.5c0-7.3-2.2-11-5.6-11s-5.6,3.6-5.6,11,2.2,11.1,5.6,11.1,5.6-3.8,5.6-11.1Z"/>
      <path class="st8" d="M303.3,865.5c0-8,2.7-12.4,7.4-12.4s7.4,4.4,7.4,12.4-2.7,12.6-7.4,12.6-7.4-4.6-7.4-12.6ZM316.3,865.5c0-7.3-2.2-11-5.6-11s-5.6,3.6-5.6,11,2.2,11.1,5.6,11.1,5.6-3.8,5.6-11.1Z"/>
      <path class="st8" d="M763.4,876.1h5.8v-20h-4.4v-1.1c2-.3,3.6-.9,4.7-1.5h1.4v22.6h5.4v1.5h-12.9v-1.5Z"/>
      <path class="st8" d="M793.3,855h-13v-1.5h15.2v1c-5.9,7.6-7.4,13.7-7.8,23.1h-1.8c.4-9.7,2.5-15.8,7.4-22.6h0Z"/>
      <path class="st8" d="M799.7,862c0-1.1.8-1.7,1.6-1.7s1.6.6,1.6,1.7-.8,1.7-1.6,1.7-1.6-.6-1.6-1.7ZM799.7,876.4c0-1.1.8-1.7,1.6-1.7s1.6.6,1.6,1.7-.8,1.7-1.6,1.7-1.6-.6-1.6-1.7Z"/>
      <path class="st8" d="M806.7,874.6l1-1.2c1.5,1.6,3.5,3.1,6.8,3.1s5.8-2.1,5.8-5.3-2.5-5.6-8.6-5.6v-1.5c5.7,0,7.7-2.3,7.7-5.2s-2-4.5-5-4.5-4.2,1.2-5.6,2.6l-1-1.1c1.7-1.6,3.8-3,6.7-3s6.7,2.1,6.7,5.8-2,5.1-4.7,5.9v.2c3.1.6,5.6,2.8,5.6,6.3s-3.3,6.8-7.6,6.8-6.2-1.8-7.8-3.4h0Z"/>
      <path class="st8" d="M825.9,865.5c0-8,2.7-12.4,7.4-12.4s7.4,4.4,7.4,12.4-2.7,12.6-7.4,12.6-7.4-4.6-7.4-12.6ZM838.9,865.5c0-7.3-2.2-11-5.6-11s-5.6,3.6-5.6,11,2.2,11.1,5.6,11.1,5.6-3.8,5.6-11.1Z"/>
    </g>
    <g>
      <rect class="st8" x="0" y="0" width="1080" height="24.9"/>
      <rect class="st8" x="1055" y="0" width="24.9" height="1080"/>
      <rect class="st8" x="0" y="0" width="24.9" height="1080"/>
      <rect class="st8" x="0" y="1055.1" width="1080" height="24.9"/>
    </g>
  </g>
  <g id="Layer_3">
    <g class="st6">
      <text class="st7" transform="translate(468.5 276)"><tspan x="0" y="0">Check-in</tspan></text>
    </g>
    <g class="st6">
      <text class="st7" transform="translate(447.6 343.3)"><tspan x="0" y="0">Folk Dance</tspan></text>
    </g>
    <g class="st6">
      <text class="st7" transform="translate(421.5 410.1)"><tspan x="0" y="0">Dough Figures</tspan></text>
    </g>
    <g class="st6">
      <text class="st7" transform="translate(487 476.5)"><tspan x="0" y="0">Lunch</tspan></text>
    </g>
    <g class="st6">
      <text class="st7" transform="translate(466.6 543.4)"><tspan x="0" y="0">Bead Art</tspan></text>
    </g>
    <g class="st6">
      <text class="st7" transform="translate(492.7 610.2)"><tspan x="0" y="0">Break</tspan></text>
    </g>
    <g class="st6">
      <text class="st7" transform="translate(402.2 677)"><tspan x="0" y="0">Big Flag Activity</tspan></text>
    </g>
    <g class="st6">
      <text class="st7" transform="translate(492.1 743.9)"><tspan x="0" y="0">Snack</tspan></text>
    </g>
    <g class="st6">
      <text class="st7" transform="translate(404.9 810.7)"><tspan x="0" y="0">Intergroup Time</tspan></text>
    </g>
    <g class="st6">
      <text class="st7" transform="translate(458.8 877.6)"><tspan x="0" y="0">Check-out</tspan></text>
    </g>
  </g>
  <g id="Layer_4">
    <g>
      <rect class="st0" x="78.3" y="980" width="19.3" height="19.3"/>
      <rect class="st0" x="97.6" y="960.7" width="19.3" height="19.3"/>
      <rect class="st0" x="116.9" y="980" width="19.3" height="19.3"/>
      <rect class="st0" x="78.3" y="941.4" width="19.3" height="19.3"/>
      <rect class="st0" x="116.9" y="941.4" width="19.3" height="19.3"/>
    </g>
    <g>
      <rect class="st0" x="77.4" y="136.8" width="19.3" height="19.3"/>
      <rect class="st0" x="96.7" y="117.5" width="19.3" height="19.3"/>
      <rect class="st0" x="116" y="136.8" width="19.3" height="19.3"/>
      <rect class="st0" x="77.4" y="98.2" width="19.3" height="19.3"/>
      <rect class="st0" x="116" y="98.2" width="19.3" height="19.3"/>
    </g>
    <g>
      <circle class="st8" cx="106.4" cy="554.1" r="42.1"/>
      <rect class="st4" x="89.8" y="537.5" width="33.2" height="33.2"/>
      <rect class="st1" x="87.9" y="535.7" width="36.9" height="36.9"/>
      <circle class="st1" cx="106.4" cy="554.1" r="37.1"/>
    </g>
    <line class="st3" x1="107.2" y1="190.6" x2="107.2" y2="477"/>
    <line class="st3" x1="106.4" y1="631.3" x2="106.4" y2="917.7"/>
    <g>
      <rect class="st0" x="945.6" y="974.6" width="19.3" height="19.3"/>
      <rect class="st0" x="964.9" y="955.3" width="19.3" height="19.3"/>
      <rect class="st0" x="984.1" y="974.6" width="19.3" height="19.3"/>
      <rect class="st0" x="945.6" y="936" width="19.3" height="19.3"/>
      <rect class="st0" x="984.1" y="936" width="19.3" height="19.3"/>
    </g>
    <g>
      <rect class="st0" x="944.7" y="131.4" width="19.3" height="19.3"/>
      <rect class="st0" x="964" y="112.1" width="19.3" height="19.3"/>
      <rect class="st0" x="983.3" y="131.4" width="19.3" height="19.3"/>
      <rect class="st0" x="944.7" y="92.8" width="19.3" height="19.3"/>
      <rect class="st0" x="983.3" y="92.8" width="19.3" height="19.3"/>
    </g>
    <g>
      <circle class="st8" cx="973.6" cy="548.7" r="42.1"/>
      <rect class="st4" x="957.1" y="532.1" width="33.2" height="33.2"/>
      <rect class="st1" x="955.2" y="530.3" width="36.9" height="36.9"/>
      <circle class="st1" cx="973.6" cy="548.7" r="37.1"/>
    </g>
    <line class="st3" x1="974.5" y1="185.2" x2="974.5" y2="471.6"/>
    <line class="st3" x1="973.6" y1="625.9" x2="973.6" y2="912.3"/>
    <g>
      <line class="st3" x1="207.9" y1="968.4" x2="246.3" y2="968.4"/>
      <line class="st3" x1="227.1" y1="948.7" x2="227.1" y2="989"/>
    </g>
    <g>
      <line class="st3" x1="834.6" y1="967.9" x2="873" y2="967.9"/>
      <line class="st3" x1="853.8" y1="948.2" x2="853.8" y2="988.5"/>
    </g>
  </g>
</svg>